HIERARCHY
ROOT hip
{
  OFFSET 0 0 0
  CHANNELS 6 Xposition Yposition Zposition Zrotation Yrotation Xrotation
  JOINT abdomen
  {
    OFFSET 0 20.6881 -0.73152
    CHANNELS 3 Zrotation Xrotation Yrotation
    JOINT chest
    {
      OFFSET 0 11.7043 -0.48768
      CHANNELS 3 Zrotation Xrotation Yrotation
      JOINT neck
      {
        OFFSET 0 22.1894 -2.19456
        CHANNELS 3 Zrotation Xrotation Yrotation
        JOINT head
        {
          OFFSET -0.24384 7.07133 1.2192
          CHANNELS 3 Zrotation Xrotation Yrotation
          JOINT leftEye
          {
            OFFSET 4.14528 8.04674 8.04672
            CHANNELS 3 Zrotation Xrotation Yrotation
            End Site
            {
              OFFSET 1 0 0
            }
          }
          JOINT rightEye
          {
            OFFSET -3.6576 8.04674 8.04672
            CHANNELS 3 Zrotation Xrotation Yrotation
            End Site
            {
              OFFSET 1 0 0
            }
          }
        }
      }
      JOINT rCollar
      {
        OFFSET -2.68224 19.2634 -4.8768
        CHANNELS 3 Zrotation Xrotation Yrotation
        JOINT rShldr
        {
          OFFSET -8.77824 -1.95073 1.46304
          CHANNELS 3 Zrotation Xrotation Yrotation
          JOINT rForeArm
          {
            OFFSET -28.1742 -1.7115 0.48768
            CHANNELS 3 Zrotation Xrotation Yrotation
            JOINT rHand
            {
              OFFSET -22.5879 0.773209 7.07136
              CHANNELS 3 Zrotation Xrotation Yrotation
              JOINT rThumb1
              {
                OFFSET -1.2192 -0.487915 3.41376
                CHANNELS 3 Zrotation Xrotation Yrotation
                JOINT rThumb2
                {
                  OFFSET -3.37035 -0.52449 3.41376
                  CHANNELS 3 Zrotation Xrotation Yrotation
                  End Site
                  {
                    OFFSET -1.78271 -1.18214 1.43049
                  }
                }
              }
              JOINT rIndex1
              {
                OFFSET -7.75947 0.938293 5.60832
                CHANNELS 3 Zrotation Xrotation Yrotation
                JOINT rIndex2
                {
                  OFFSET -2.54057 -0.884171 1.56538
                  CHANNELS 3 Zrotation Xrotation Yrotation
                  End Site
                  {
                    OFFSET -1.62519 -0.234802 1.16502
                  }
                }
              }
              JOINT rMid1
              {
                OFFSET -8.24714 1.18213 3.41376
                CHANNELS 3 Zrotation Xrotation Yrotation
                JOINT rMid2
                {
                  OFFSET -3.10165 -0.590103 1.0647
                  CHANNELS 3 Zrotation Xrotation Yrotation
                  End Site
                  {
                    OFFSET -2.48547 -0.328903 0.83742
                  }
                }
              }
              JOINT rRing1
              {
                OFFSET -8.82822 0.546677 1.51678
                CHANNELS 3 Zrotation Xrotation Yrotation
                JOINT rRing2
                {
                  OFFSET -2.60934 -0.819778 -0.0198488
                  CHANNELS 3 Zrotation Xrotation Yrotation
                  End Site
                  {
                    OFFSET -2.33842 -0.294052 0.168128
                  }
                }
              }
              JOINT rPinky1
              {
                OFFSET -8.27202 -0.0477905 -0.4584
                CHANNELS 3 Zrotation Xrotation Yrotation
                JOINT rPinky2
                {
                  OFFSET -1.82734 -0.647385 -0.700984
                  CHANNELS 3 Zrotation Xrotation Yrotation
                  End Site
                  {
                    OFFSET -1.69225 -0.51767 -0.607171
                  }
                }
              }
            }
          }
        }
      }
      JOINT lCollar
      {
        OFFSET 2.68224 19.2634 -4.8768
        CHANNELS 3 Zrotation Xrotation Yrotation
        JOINT lShldr
        {
          OFFSET 8.77824 -1.95073 1.46304
          CHANNELS 3 Zrotation Xrotation Yrotation
          JOINT lForeArm
          {
            OFFSET 28.1742 -1.7115 0.48768
            CHANNELS 3 Zrotation Xrotation Yrotation
            JOINT lHand
            {
              OFFSET 22.5879 0.773209 7.07136
              CHANNELS 3 Zrotation Xrotation Yrotation
              JOINT lThumb1
              {
                OFFSET 1.2192 -0.487915 3.41376
                CHANNELS 3 Zrotation Xrotation Yrotation
                JOINT lThumb2
                {
                  OFFSET 3.37035 -0.52449 3.41376
                  CHANNELS 3 Zrotation Xrotation Yrotation
                  End Site
                  {
                    OFFSET 1.78271 -1.18214 1.43049
                  }
                }
              }
              JOINT lIndex1
              {
                OFFSET 7.75947 0.938293 5.60832
                CHANNELS 3 Zrotation Xrotation Yrotation
                JOINT lIndex2
                {
                  OFFSET 2.54057 -0.884171 1.56538
                  CHANNELS 3 Zrotation Xrotation Yrotation
                  End Site
                  {
                    OFFSET 1.62519 -0.234802 1.16502
                  }
                }
              }
              JOINT lMid1
              {
                OFFSET 8.24714 1.18213 3.41376
                CHANNELS 3 Zrotation Xrotation Yrotation
                JOINT lMid2
                {
                  OFFSET 3.10165 -0.590103 1.0647
                  CHANNELS 3 Zrotation Xrotation Yrotation
                  End Site
                  {
                    OFFSET 2.48547 -0.328903 0.83742
                  }
                }
              }
              JOINT lRing1
              {
                OFFSET 8.82822 0.546677 1.51678
                CHANNELS 3 Zrotation Xrotation Yrotation
                JOINT lRing2
                {
                  OFFSET 2.60934 -0.819778 -0.0198488
                  CHANNELS 3 Zrotation Xrotation Yrotation
                  End Site
                  {
                    OFFSET 2.33842 -0.294052 0.168128
                  }
                }
              }
              JOINT lPinky1
              {
                OFFSET 8.27202 -0.0477905 -0.4584
                CHANNELS 3 Zrotation Xrotation Yrotation
                JOINT lPinky2
                {
                  OFFSET 1.82734 -0.647385 -0.700984
                  CHANNELS 3 Zrotation Xrotation Yrotation
                  End Site
                  {
                    OFFSET 1.69225 -0.51767 -0.607171
                  }
                }
              }
            }
          }
        }
      }
    }
  }
  JOINT rButtock
  {
    OFFSET -8.77824 4.35084 1.2192
    CHANNELS 3 Zrotation Xrotation Yrotation
    JOINT rThigh
    {
      OFFSET 0 -1.70687 -2.19456
      CHANNELS 3 Zrotation Xrotation Yrotation
      JOINT rShin
      {
        OFFSET 0 -36.8199 0.73152
        CHANNELS 3 Zrotation Xrotation Yrotation
        JOINT rFoot
        {
          OFFSET 0.73152 -45.1104 -5.12064
          CHANNELS 3 Zrotation Xrotation Yrotation
          End Site
          {
            OFFSET -1.1221 -3.69964 12.103
          }
        }
      }
    }
  }
  JOINT lButtock
  {
    OFFSET 8.77824 4.35084 1.2192
    CHANNELS 3 Zrotation Xrotation Yrotation
    JOINT lThigh
    {
      OFFSET 0 -1.70687 -2.19456
      CHANNELS 3 Zrotation Xrotation Yrotation
      JOINT lShin
      {
        OFFSET 0 -36.8199 0.73152
        CHANNELS 3 Zrotation Xrotation Yrotation
        JOINT lFoot
        {
          OFFSET -0.73152 -45.1104 -5.12064
          CHANNELS 3 Zrotation Xrotation Yrotation
          End Site
          {
            OFFSET 1.1221 -3.69964 12.103
          }
        }
      }
    }
  }
}
MOTION
Frames:	4
Frame Time:	0.03333
0.0 0.0 0.0 0.0 0.0 0.0 0.0 0.0 0.0 0.0 0.0 0.0 0.0 0.0 0.0 0.0 0.0 0.0 0.0 0.0 0.0 0.0 0.0 0.0 0.0 0.0 0.0 0.0 0.0 0.0 0.0 0.0 0.0 0.0 0.0 0.0 0.0 0.0 0.0 0.0 0.0 0.0 0.0 0.0 0.0 0.0 0.0 0.0 0.0 0.0 0.0 0.0 0.0 0.0 0.0 0.0 0.0 0.0 0.0 0.0 0.0 0.0 0.0 0.0 0.0 0.0 0.0 0.0 0.0 0.0 0.0 0.0 0.0 0.0 0.0 0.0 0.0 0.0 0.0 0.0 0.0 0.0 0.0 0.0 0.0 0.0 0.0 0.0 0.0 0.0 0.0 0.0 0.0 0.0 0.0 0.0 0.0 0.0 0.0 0.0 0.0 0.0 0.0 0.0 0.0 0.0 0.0 0.0 0.0 0.0 0.0 0.0 0.0 0.0 0.0 0.0 0.0 0.0 0.0 0.0 0.0 0.0 0.0 0.0 0.0 0.0 0.0 0.0 0.0 0.0 0.0 0.0
-6.9406 68.1141 -3.3487999999999998 20.043146 -79.474715 -26.035103 -15.474391 5.782267 -180.0 -5.474906 4.658418 -176.167985 3.90046 18.249326 52.163824 -23.52522 -11.139515 -92.739709 -0.000604 -0.0 0.00098 -0.000604 -0.0 0.00098 -0.049325 0.292389 0.064823 98.262345 -31.893185 118.743641 119.136709 -12.319583 23.893815 171.168782 9.230257 153.660945 114.538895 -50.245276 55.721364 -36.970991 -0.385706 -8.674263 -108.426336 34.159683 91.74251 8.1216 -3.04324 -6.925729 -145.287798 29.524814 132.693613 -172.159934 -31.37991 143.708408 -145.100279 -1.52194 -178.649654 12.21483 36.613537 -4.851296 -117.240158 -36.643765 -115.186919 15.665451 38.396564 6.212847 -3.284291 -26.94207 5.275454 74.990026 -19.676176 104.741734 -177.241161 3.642759 74.816497 14.026504 -26.834288 6.916341 -11.109729 -11.092277 0.639792 31.302406 26.145177 -21.971139 0.328836 0.529612 -0.185837 -11.499847 0.123385 0.537258 0.057557 0.167875 -0.032259 -3.16464 0.193821 0.00282 -0.005432 1.729042 -0.542769 154.374652 12.771502 -170.104277 126.800543 -26.619193 124.511213 126.048363 -29.781858 124.417531 179.980189 75.750968 0.0163 157.608565 21.415901 8.123334 -13.427414 55.567548 -139.559838 -122.373892 47.055481 178.829926 0.003209 -0.001327 0.001604 2.931923 -1.690343 91.989997 60.923761 -7.256235 -35.336922 -11.891285 -22.642919 -19.445901
-9.6428 66.9868 -5.0283 32.016675 -81.468821 -37.231956 -13.34465 9.014787 -67.744203 8.758272 -0.052153 74.320518 7.636239 27.137499 105.328665 -31.427488 17.785689 -139.971639 0.005023 -0.0 -0.002102 -0.000543 0.0 -0.000742 -80.165864 68.372124 83.260842 -54.841324 -22.846274 -31.259209 5.20142 72.204775 -118.14795 144.025227 -45.731269 133.003107 -176.597469 -14.213436 89.691547 179.207713 -17.019714 97.462295 12.216921 -21.784589 -5.12062 -59.29717 48.873862 47.259364 -160.67164 -6.668015 143.245519 3.436656 -0.617903 0.279699 -0.015037 -1.32333 -0.414709 -156.370865 -25.09545 174.793669 -119.360105 -34.785475 -117.262328 -85.358951 -52.251446 -85.592185 155.445182 -3.134382 -161.758281 -83.728256 -29.733623 -126.991829 9.169959 -44.935578 -95.339329 9.398767 -38.851715 9.199981 169.145787 -6.826561 -89.91515 20.130901 -39.260892 -5.175683 0.327357 0.52979 -0.187292 -0.974511 14.157663 -2.849635 167.297765 -27.767428 -145.261106 -11.4592 -24.910964 1.155667 145.098323 -1.606669 178.62473 151.273293 -30.275603 174.221848 -8.365673 26.426913 -7.365104 -1.161419 -2.238535 0.821382 -2.5e-05 -0.000627 -0.0 -34.484497 -54.740069 -130.379771 -57.634371 -9.118094 -175.457883 9.213423 -7.148051 -81.89031 -179.999563 75.750269 -0.00036 -165.165168 74.908624 172.612665 5.830112 -67.606443 50.002382 -4.654499 38.434361 173.177101
-11.789299999999999 67.1243 -6.1698 19.276586 -79.714938 -23.76877 -12.234099 8.255258 -94.484006 7.007676 3.899343 98.771142 -6.210614 35.864079 -153.270474 17.083567 40.215134 109.992823 -0.002051 0.0 -0.003847 -0.001641 0.0 -0.001508 -85.53724 68.181802 88.688901 -71.27492 -41.161573 -43.845724 125.25542 82.105891 122.451135 148.472105 -40.949215 137.10389 -0.543477 0.536452 0.0854 -154.943996 -65.921508 118.561274 73.419829 -73.571361 26.56278 -82.309402 52.418785 69.023419 -8.416506 20.880406 5.645491 11.446795 -24.924396 -1.549678 -145.120339 0.227198 -179.198393 11.798677 26.401305 -5.995075 -126.795947 -26.619354 -124.512947 -111.778785 -42.430387 -110.982642 129.706598 55.102584 -133.553761 -16.270917 10.842205 -79.801244 -113.294153 84.640305 -112.481345 147.80009 29.774752 -128.905014 -27.450478 -26.099443 -2.267441 39.026577 30.385332 -20.681028 -159.64165 -69.973471 -102.395378 168.904802 -35.904021 -114.902162 -0.046684 -0.13874 0.026703 163.324375 -4.924643 -143.367449 145.098687 -1.522361 178.650525 73.592385 -78.004434 95.237165 -12.988685 44.344292 -10.761133 -14.740474 44.095476 -8.273446 179.993487 75.749647 0.00672 158.070994 13.541047 180.0 33.353037 -65.138907 83.26755 37.133256 -23.147737 161.70326 -0.001733 0.000319 -0.000433 7.970605 2.257913 -74.284594 -53.392437 13.369735 109.079808 -107.672951 -29.016611 -17.025681
